<svg xmlns="http://www.w3.org/2000/svg" xmlns:xlink="http://www.w3.org/1999/xlink" id="Layer_1" x="0" y="0" enable-background="new 0 0 1000 1000" version="1.1" viewBox="0 0 1000 1000" xml:space="preserve"><metadata><?xpacket begin="﻿" id="W5M0MpCehiHzreSzNTczkc9d"?><?xpacket end="w"?></metadata><switch><g><g><g><circle cx="500" cy="500" r="398" fill="#382B73"/><circle cx="500" cy="500" r="344.3" fill="#473080"/></g><path fill="#382B73" d="M739.3,538.7c0-0.5-0.1-1.1-0.1-1.6c0,0,0,0,0,0c0,0,0,0,0,0c-0.9-8.2-5.4-15.3-11.6-18.2l-10.8-6.8 v-15.8c0-9.7-7.8-17.5-17.5-17.5l0,0c-7.7,0-14.3,5-16.6,12l-27.8-17.4v-13c0-9.7-7.8-17.5-17.5-17.5c-6.9,0-12.8,4-15.7,9.7 l-65.3-40.8l4.7-62.3c1.5-34.6-21.3-68.2-41.4-91.7v0c-10.7-12.5-28.3-12.5-39,0v0c-20.2,23.6-42.9,57.2-41.4,91.7l4.7,62.3 l-65.3,40.8c-2.9-5.8-8.8-9.7-15.7-9.7c-9.7,0-17.5,7.8-17.5,17.5v13l-27.8,17.4c-2.3-7-8.9-12-16.6-12l0,0 c-9.7,0-17.5,7.8-17.5,17.5v15.8l-10.8,6.8c-6.3,2.9-10.7,9.9-11.6,18.2c0,0,0,0,0,0c0,0,0,0,0,0c-0.1,0.5-0.1,1.1-0.1,1.6 c0,0.6-0.1,1.1-0.1,1.7v17.4l0,0c0,9.1,4.1,16.9,10.1,20.6c1.8,1.1,3.8,1.9,5.9,2.1c0.6,0.1,1.2,0.1,1.8,0.1l0,0h0l120.9-28 c2.2,24.2,12.9,46,29.1,62.2c9.1,9.1,20,16.5,32.1,21.6l4.1,54.6l-48.6,29c-4.9,2-8,6.8-8,12v12.4c0,5.5,4.5,10,10,10l58-10.7 l12.7,39.7c3.5,10.9,18.8,10.9,22.3,0l12.7-39.7l58,10.7c5.5,0,10-4.5,10-10v-12.4c0-5.3-3.2-10-8-12l-48.6-29l4.1-54.6 c12.1-5.1,23-12.5,32.1-21.6c0,0,0,0,0,0c1.1-1.1,2.1-2.2,3.2-3.3c0.1-0.1,0.2-0.2,0.3-0.3c0.9-1,1.9-2.1,2.7-3.2 c0.2-0.2,0.4-0.4,0.5-0.7c0.8-1,1.6-2,2.4-3c11.1-14.6,18.2-32.4,20-51.7l120.9,28h0l0,0c0.6,0,1.2,0,1.8-0.1 c2.1-0.3,4.1-1,5.9-2.1c6-3.7,10.1-11.5,10.1-20.6l0,0v-17.4C739.3,539.9,739.3,539.3,739.3,538.7z"/><g><g><g><path fill="#009ADD" d="M482.7,722.5l-64.5,11.9c-5.5,0-10-4.5-10-10v-12.4c0-5.3,3.2-10,8-12l66.4-39.6V722.5z"/><path fill="#1CAEE4" d="M408.2,712.6v11.9c0,5.5,4.5,10,10,10l64.5-11.9v-11.9l-64.5,11.9 C412.7,722.5,408.2,718.1,408.2,712.6z"/><path fill="#009ADD" d="M517.3,722.5l64.5,11.9c5.5,0,10-4.5,10-10v-12.4c0-5.3-3.2-10-8-12l-66.4-39.6V722.5z"/><path fill="#1CAEE4" d="M581.8,722.5l-64.5-11.9v11.9l64.5,11.9c5.5,0,10-4.5,10-10v-11.9 C591.8,718.1,587.3,722.5,581.8,722.5z"/></g><g><g><path fill="#136DA0" d="M300.8,519.6L300.8,519.6c-9.7,0-17.5-7.8-17.5-17.5v-25.7c0-9.7,7.8-17.5,17.5-17.5h0 c9.7,0,17.5,7.8,17.5,17.5v25.7C318.3,511.7,310.5,519.6,300.8,519.6z"/><path fill="#136DA0" d="M362.8,483.7L362.8,483.7c-9.7,0-17.5-7.8-17.5-17.5v-25.7c0-9.7,7.8-17.5,17.5-17.5l0,0 c9.7,0,17.5,7.8,17.5,17.5v25.7C380.3,475.8,372.5,483.7,362.8,483.7z"/></g><g><path fill="#136DA0" d="M699.2,519.6L699.2,519.6c9.7,0,17.5-7.8,17.5-17.5v-25.7c0-9.7-7.8-17.5-17.5-17.5h0 c-9.7,0-17.5,7.8-17.5,17.5v25.7C681.7,511.7,689.5,519.6,699.2,519.6z"/><path fill="#136DA0" d="M637.2,483.7L637.2,483.7c9.7,0,17.5-7.8,17.5-17.5v-25.7c0-9.7-7.8-17.5-17.5-17.5l0,0 c-9.7,0-17.5,7.8-17.5,17.5v25.7C619.7,475.8,627.5,483.7,637.2,483.7z"/></g></g><g><path fill="#009ADD" d="M278.6,560.6l200.3-46.3V369.9L272.5,498.9c-7.1,3.3-11.8,11.8-11.8,21.5v17.4 C260.7,550.4,268.7,560.6,278.6,560.6z"/><path fill="#1CAEE4" d="M260.9,517.1c-0.1,1.1-0.2,2.2-0.2,3.3v17.4c0,12.6,8,22.8,17.9,22.8l200.3-46.3v-23.9l-200.3,46.3 C269.5,536.7,262.1,528.2,260.9,517.1z"/><path fill="#009ADD" d="M721.4,560.6l-200.3-46.3V369.9l206.4,129.1c7.1,3.3,11.8,11.8,11.8,21.5v17.4 C739.3,550.4,731.3,560.6,721.4,560.6z"/><path fill="#1CAEE4" d="M721.4,536.7l-200.3-46.3v23.9l200.3,46.3c9.9,0,17.9-10.2,17.9-22.8v-17.4c0-1.1-0.1-2.2-0.2-3.3 C737.9,528.2,730.5,536.7,721.4,536.7z"/></g><path fill="#1CAEE4" d="M533.4,693.5l-22.3,70c-3.5,10.9-18.8,10.9-22.3,0l-22.3-70L439,329.5c-1.5-34.6,21.3-68.2,41.4-91.7 l0,0c10.7-12.5,28.3-12.5,39,0l0,0c20.2,23.6,42.9,57.2,41.4,91.7L533.4,693.5z"/><path fill="#27C1E6" d="M523.3,693.5l-15.6,70c-2.4,10.9-13.1,10.9-15.6,0l-15.6-70l-19.2-363.9c-1-34.6,14.8-68.2,28.9-91.7 l0,0c7.5-12.5,19.7-12.5,27.2,0l0,0c14.1,23.6,30,57.2,28.9,91.7L523.3,693.5z"/><g><path fill="#FFF" d="M527.2,323.5c-2.7,0-5.3-1-7.3-3c-10.9-10.9-28.7-10.9-39.7,0c-4.1,4.1-10.6,4.1-14.7,0 c-4.1-4.1-4.1-10.6,0-14.7c19-19,50-19,69.1,0c4.1,4.1,4.1,10.6,0,14.7C532.5,322.5,529.8,323.5,527.2,323.5z"/></g></g><path fill="#136DA0" d="M605.9,528.8l-58.9-13.6l-10.4,137.2c-11.4,4.1-23.7,6.3-36.5,6.3c-12.8,0-25.1-2.2-36.5-6.3 l-10.4-137.2l-58.9,13.6c10.1-49.2,53.7-86.2,105.9-86.2S595.7,479.6,605.9,528.8z"/><g><g><g><circle cx="500" cy="523.5" r="100.9" fill="#FFF"/><path fill="#D1D3D4" d="M500,607.6c-52.9,0-96.2-40.7-100.5-92.5c-0.2,2.8-0.4,5.6-0.4,8.4c0,55.7,45.2,100.9,100.9,100.9 c55.7,0,100.9-45.2,100.9-100.9c0-2.8-0.1-5.6-0.4-8.4C596.2,566.9,552.9,607.6,500,607.6z"/></g></g><g><path fill="#E7AD27" d="M564.8,503.6v62c0,5.6-4.6,10.2-10.2,10.2H445.4c-5.6,0-10.2-4.6-10.2-10.2v-62 c0-5.6,4.6-10.2,10.2-10.2h109.3C560.3,493.4,564.8,498,564.8,503.6z"/><path fill="#FEDE3A" d="M564.8,491.4v62c0,5.6-4.6,10.2-10.2,10.2H445.4c-5.6,0-10.2-4.6-10.2-10.2v-62 c0-5.6,4.6-10.2,10.2-10.2h109.3C560.3,481.2,564.8,485.7,564.8,491.4z"/><path fill="#E7AD27" d="M564.8,495.5v20.8c0,5.6-4.6,10.2-10.2,10.2H445.4c-5.6,0-10.2-4.6-10.2-10.2v-20.8 c0-5.6,4.6-10.2,10.2-10.2h109.3C560.3,485.3,564.8,489.8,564.8,495.5z"/><path fill="#F7CB15" d="M564.8,491.4v20.8c0,5.6-4.6,10.2-10.2,10.2H445.4c-5.6,0-10.2-4.6-10.2-10.2v-20.8 c0-5.6,4.6-10.2,10.2-10.2h109.3C560.3,481.2,564.8,485.7,564.8,491.4z"/><path fill="#FEDE3A" d="M554.6,481.2H445.4c-5.6,0-10.2,4.6-10.2,10.2v4.1c0-5.6,4.6-10.2,10.2-10.2h109.3 c5.6,0,10.2,4.6,10.2,10.2v-4.1C564.8,485.7,560.3,481.2,554.6,481.2z"/><g><path fill="#F7CB15" d="M473.8,536.2h-4.5c-2.3,0-4.1-1.8-4.1-4.1v-11.4c0-2.3,1.8-4.1,4.1-4.1h4.5c2.3,0,4.1,1.8,4.1,4.1 v11.4C477.9,534.4,476,536.2,473.8,536.2z"/><path fill="#FFF" d="M473.8,532.2h-4.5c-2.3,0-4.1-1.8-4.1-4.1v-11.4c0-2.3,1.8-4.1,4.1-4.1h4.5c2.3,0,4.1,1.8,4.1,4.1 v11.4C477.9,530.3,476,532.2,473.8,532.2z"/><path fill="#D1D3D4" d="M473.8,528.1h-4.5c-2.3,0-4.1-1.8-4.1-4.1v4.1c0,2.3,1.8,4.1,4.1,4.1h4.5c2.3,0,4.1-1.8,4.1-4.1V524 C477.9,526.3,476,528.1,473.8,528.1z"/><path fill="#F7CB15" d="M530.7,536.2h-4.5c-2.3,0-4.1-1.8-4.1-4.1v-11.4c0-2.3,1.8-4.1,4.1-4.1h4.5c2.3,0,4.1,1.8,4.1,4.1 v11.4C534.8,534.4,532.9,536.2,530.7,536.2z"/><path fill="#FFF" d="M530.7,532.2h-4.5c-2.3,0-4.1-1.8-4.1-4.1v-11.4c0-2.3,1.8-4.1,4.1-4.1h4.5c2.3,0,4.1,1.8,4.1,4.1 v11.4C534.8,530.3,532.9,532.2,530.7,532.2z"/><path fill="#D1D3D4" d="M530.7,528.1h-4.5c-2.3,0-4.1-1.8-4.1-4.1v4.1c0,2.3,1.8,4.1,4.1,4.1h4.5c2.3,0,4.1-1.8,4.1-4.1V524 C534.8,526.3,532.9,528.1,530.7,528.1z"/></g><g><path fill="#F7CB15" d="M534.6,481.2h-12.2v-9.6c0-2.7-2.2-4.8-4.8-4.8h-35c-2.7,0-4.8,2.2-4.8,4.8v9.6h-12.2v-9.6 c0-9.4,7.6-17,17-17h35c9.4,0,17,7.6,17,17V481.2z"/></g><path fill="#FEDE3A" d="M517.5,454.5h-35c-9.4,0-17,7.6-17,17v9.6h2.7v-8.7c0-8.7,7-15.7,15.7-15.7h32.3 c8.7,0,15.7,7,15.7,15.7v8.7h2.7v-9.6C534.6,462.2,526.9,454.5,517.5,454.5z"/><path fill="#E7AD27" d="M528.4,481.2v-9.6c0-6-4.9-10.9-10.9-10.9h-35c-6,0-10.9,4.9-10.9,10.9v9.6h6.1v-9.6 c0-2.7,2.2-4.8,4.8-4.8h35c2.7,0,4.8,2.2,4.8,4.8v9.6H528.4z"/></g></g></g></g></g></switch></svg>